<svg width="13" height="16" viewBox="0 0 13 16" fill="none" xmlns="http://www.w3.org/2000/svg">
<path d="M11.5333 1.63265H8.8V1.30612C8.8 0.587755 8.13333 0 7.33333 0H5.66667C4.86667 0 4.2 0.587755 4.2 1.30612V1.63265H1.46667C0.666667 1.63265 0 2.28571 0 3.06939V4.50612H0.866667V14.5633C0.866667 15.3469 1.53333 16 2.33333 16H10.6667C11.4667 16 12.1333 15.3469 12.1333 14.5633V4.50612H13V3.06939C13 2.28571 12.3333 1.63265 11.5333 1.63265ZM11.4667 14.5633C11.4667 14.9551 11.1333 15.2816 10.7333 15.2816H2.33333C1.93333 15.2816 1.6 14.9551 1.6 14.5633V4.50612H11.4667V14.5633ZM4.93333 1.30612C4.93333 0.979592 5.26667 0.718367 5.66667 0.718367H7.33333C7.73333 0.718367 8.06667 0.979592 8.06667 1.30612V1.63265H4.93333V1.30612ZM12.2667 3.06939V3.78776H0.733333V3.06939C0.733333 2.67755 1.06667 2.35102 1.46667 2.35102H11.5333C11.9333 2.35102 12.2667 2.67755 12.2667 3.06939Z" fill="#7B7B7B"/>
<path d="M3.99998 13.8449C4.19998 13.8449 4.33331 13.7143 4.33331 13.5184V6.40002C4.33331 6.2041 4.19998 6.07349 3.99998 6.07349C3.79998 6.07349 3.59998 6.2041 3.59998 6.40002V13.5184C3.59998 13.649 3.79998 13.8449 3.99998 13.8449Z" fill="#7B7B7B"/>
<path d="M6.5333 13.8449C6.7333 13.8449 6.86663 13.7143 6.86663 13.5184V6.40002C6.86663 6.2041 6.7333 6.07349 6.5333 6.07349C6.3333 6.07349 6.1333 6.2041 6.1333 6.40002V13.5184C6.1333 13.649 6.3333 13.8449 6.5333 13.8449Z" fill="#7B7B7B"/>
<path d="M8.99996 13.8449C9.19996 13.8449 9.33329 13.7143 9.33329 13.5184V6.40002C9.33329 6.2041 9.19996 6.07349 8.99996 6.07349C8.79996 6.07349 8.66663 6.2041 8.66663 6.40002V13.5184C8.66663 13.649 8.79996 13.8449 8.99996 13.8449Z" fill="#7B7B7B"/>
</svg>
